<svg width="12" height="12" xmlns="http://www.w3.org/2000/svg" xmlns:xlink="http://www.w3.org/1999/xlink">
    <defs>
        <path d="M12.098 13.783l1.685-1.685a.747.747 0 0 0 0-1.059l-3.038-3.037 3.038-3.038a.747.747 0 0 0 0-1.06L12.098 2.22a.747.747 0 0 0-1.059 0L8.002 5.258 4.964 2.22a.747.747 0 0 0-1.06 0L2.22 3.905a.747.747 0 0 0 0 1.06l3.038 3.037-3.038 3.037a.747.747 0 0 0 0 1.06l1.685 1.684a.747.747 0 0 0 1.06 0l3.037-3.038 3.037 3.038c.29.29.766.29 1.06 0z" id="a"/>
    </defs>
    <g transform="translate(-2 -2)" fill="none" fill-rule="evenodd">
        <mask id="b" fill="#fff">
            <use xlink:href="#a"/>
        </mask>
        <use fill="#000" fill-rule="nonzero" xlink:href="#a"/>
        <g mask="url(#b)" fill="#FFF">
            <path d="M0 0h16v16H0z"/>
        </g>
    </g>
</svg>
